<svg width="50" height="50" viewBox="0 0 50 50" fill="none" xmlns="http://www.w3.org/2000/svg">
<rect width="50" height="50" rx="25" fill="#1D2027" fill-opacity="0.8"/>
<g clip-path="url(#clip0_806_881)">
<path d="M25.0001 11.25C21.9046 11.25 19.3751 13.7796 19.3751 16.875V26.25C19.3751 29.3454 21.9046 31.875 25.0001 31.875C28.0955 31.875 30.6251 29.3454 30.6251 26.25V16.875C30.6251 13.7796 28.0955 11.25 25.0001 11.25ZM16.5479 23.1116C16.2995 23.1155 16.0628 23.2178 15.8898 23.3961C15.7167 23.5744 15.6215 23.8141 15.6251 24.0625V26.25C15.6251 31.1003 19.3339 35.1051 24.0626 35.5774V38.4375C24.0608 38.5617 24.0838 38.6851 24.1301 38.8004C24.1764 38.9156 24.2452 39.0206 24.3324 39.109C24.4197 39.1975 24.5236 39.2678 24.6382 39.3157C24.7528 39.3637 24.8759 39.3884 25.0001 39.3884C25.1243 39.3884 25.2473 39.3637 25.362 39.3157C25.4766 39.2678 25.5805 39.1975 25.6677 39.109C25.755 39.0206 25.8238 38.9156 25.8701 38.8004C25.9164 38.6851 25.9394 38.5617 25.9376 38.4375V35.5774C30.6663 35.1051 34.3751 31.1003 34.3751 26.25V24.0625C34.3769 23.9383 34.3539 23.8149 34.3076 23.6996C34.2612 23.5844 34.1925 23.4794 34.1052 23.391C34.018 23.3025 33.9141 23.2322 33.7995 23.1843C33.6848 23.1363 33.5618 23.1116 33.4376 23.1116C33.3134 23.1116 33.1903 23.1363 33.0757 23.1843C32.9611 23.2322 32.8572 23.3025 32.7699 23.391C32.6827 23.4794 32.6139 23.5844 32.5676 23.6996C32.5213 23.8149 32.4983 23.9383 32.5001 24.0625V26.25C32.5001 30.3659 29.2124 33.6842 25.1112 33.7439C25.0695 33.7386 25.0275 33.7362 24.9854 33.7366C24.9512 33.7371 24.9169 33.7396 24.8829 33.7439C20.7846 33.681 17.5001 30.3638 17.5001 26.25V24.0625C17.5019 23.937 17.4785 23.8125 17.4313 23.6962C17.384 23.5799 17.3139 23.4743 17.2252 23.3856C17.1364 23.297 17.0307 23.227 16.9143 23.1799C16.798 23.1329 16.6734 23.1096 16.5479 23.1116V23.1116Z" fill="#1971FF"/>
</g>
<defs>
<clipPath id="clip0_806_881">
<rect width="30" height="30" fill="white" transform="translate(10 10)"/>
</clipPath>
</defs>
</svg>
