<svg width="50" height="50" viewBox="0 0 50 50" fill="none" xmlns="http://www.w3.org/2000/svg">
<rect width="50" height="50" rx="25" fill="#1D2027" fill-opacity="0.8"/>
<g clip-path="url(#clip0_806_892)">
<path d="M25.0009 28.3924C26.8745 28.3924 28.3934 26.8735 28.3934 24.9999C28.3934 23.1263 26.8745 21.6074 25.0009 21.6074C23.1273 21.6074 21.6084 23.1263 21.6084 24.9999C21.6084 26.8735 23.1273 28.3924 25.0009 28.3924Z" fill="#F0F4F8"/>
<path d="M36.3075 28.3924C38.1812 28.3924 39.7 26.8735 39.7 24.9999C39.7 23.1263 38.1812 21.6074 36.3075 21.6074C34.4339 21.6074 32.915 23.1263 32.915 24.9999C32.915 26.8735 34.4339 28.3924 36.3075 28.3924Z" fill="#F0F4F8"/>
<path d="M13.6923 28.3924C15.5659 28.3924 17.0847 26.8735 17.0847 24.9999C17.0847 23.1263 15.5659 21.6074 13.6923 21.6074C11.8187 21.6074 10.2998 23.1263 10.2998 24.9999C10.2998 26.8735 11.8187 28.3924 13.6923 28.3924Z" fill="#F0F4F8"/>
</g>
<defs>
<clipPath id="clip0_806_892">
<rect width="30" height="30" fill="white" transform="translate(10 10)"/>
</clipPath>
</defs>
</svg>
