<svg width="50" height="50" viewBox="0 0 50 50" fill="none" xmlns="http://www.w3.org/2000/svg">
<rect width="50" height="50" rx="25" fill="#1D2027" fill-opacity="0.8"/>
<path d="M32.8753 19.75H26.0503V29.2657C26.0503 29.5441 25.9397 29.8112 25.7428 30.0081C25.5458 30.2051 25.2788 30.3156 25.0003 30.3156C24.7218 30.3156 24.4547 30.2051 24.2578 30.0081C24.0609 29.8112 23.9503 29.5441 23.9503 29.2657V19.75H17.1252C16.1509 19.751 15.2167 20.1386 14.5278 20.8276C13.8388 21.5164 13.4513 22.4506 13.4502 23.425V36.0251C13.4513 36.9994 13.8388 37.9336 14.5278 38.6226C15.2167 39.3116 16.1509 39.6991 17.1252 39.7001H32.8753C33.8497 39.6991 34.7839 39.3116 35.4728 38.6226C36.1618 37.9336 36.5494 36.9994 36.5504 36.0251V23.425C36.5494 22.4506 36.1618 21.5164 35.4728 20.8276C34.7839 20.1386 33.8497 19.751 32.8753 19.75Z" fill="#F0F4F8"/>
<path d="M26.0498 13.8844L29.5076 17.3416C29.7061 17.5302 29.9705 17.6338 30.2443 17.6302C30.5181 17.6268 30.7796 17.5165 30.9733 17.3228C31.1669 17.1292 31.2772 16.8676 31.2807 16.5939C31.2843 16.3199 31.1806 16.0556 30.992 15.8571L25.742 10.6071C25.5451 10.4104 25.2781 10.2998 24.9998 10.2998C24.7215 10.2998 24.4545 10.4104 24.2575 10.6071L19.0075 15.8571C18.8189 16.0556 18.7153 16.3199 18.7188 16.5939C18.7224 16.8676 18.8326 17.1292 19.0263 17.3228C19.22 17.5165 19.4815 17.6268 19.7553 17.6302C20.0291 17.6338 20.2934 17.5302 20.492 17.3416L23.9498 13.8844V19.7494H26.0498L26.0498 13.8844Z" fill="#F0F4F8"/>
</svg>
