<svg width="50" height="50" viewBox="0 0 50 50" fill="none" xmlns="http://www.w3.org/2000/svg">
<rect width="50" height="50" rx="25" fill="#1D2027" fill-opacity="0.8"/>
<path fill-rule="evenodd" clip-rule="evenodd" d="M25 37C28.1826 37 31.2348 35.7357 33.4853 33.4853C35.7357 31.2348 37 28.1826 37 25C37 21.8174 35.7357 18.7652 33.4853 16.5147C31.2348 14.2643 28.1826 13 25 13C21.8174 13 18.7652 14.2643 16.5147 16.5147C14.2643 18.7652 13 21.8174 13 25C13 28.1826 14.2643 31.2348 16.5147 33.4853C18.7652 35.7357 21.8174 37 25 37ZM20.5 23.5C20.8978 23.5 21.2794 23.342 21.5607 23.0607C21.842 22.7794 22 22.3978 22 22C22 21.6022 21.842 21.2206 21.5607 20.9393C21.2794 20.658 20.8978 20.5 20.5 20.5C20.1022 20.5 19.7206 20.658 19.4393 20.9393C19.158 21.2206 19 21.6022 19 22C19 22.3978 19.158 22.7794 19.4393 23.0607C19.7206 23.342 20.1022 23.5 20.5 23.5ZM31 22C31 22.3978 30.842 22.7794 30.5607 23.0607C30.2794 23.342 29.8978 23.5 29.5 23.5C29.1022 23.5 28.7206 23.342 28.4393 23.0607C28.158 22.7794 28 22.3978 28 22C28 21.6022 28.158 21.2206 28.4393 20.9393C28.7206 20.658 29.1022 20.5 29.5 20.5C29.8978 20.5 30.2794 20.658 30.5607 20.9393C30.842 21.2206 31 21.6022 31 22ZM30.304 30.3025C30.4433 30.1631 30.5537 29.9977 30.6291 29.8157C30.7044 29.6336 30.7431 29.4385 30.7431 29.2415C30.743 29.0444 30.7041 28.8494 30.6286 28.6674C30.5532 28.4854 30.4426 28.32 30.3032 28.1807C30.1639 28.0415 29.9985 27.931 29.8164 27.8557C29.6344 27.7804 29.4392 27.7416 29.2422 27.7417C29.0452 27.7418 28.8501 27.7806 28.6681 27.8561C28.4861 27.9316 28.3208 28.0421 28.1815 28.1815C27.3376 29.0251 26.1932 29.499 25 29.499C23.8068 29.499 22.6624 29.0251 21.8185 28.1815C21.5372 27.9 21.1557 27.7418 20.7578 27.7417C20.3599 27.7416 19.9782 27.8995 19.6967 28.1807C19.4153 28.462 19.2571 28.8436 19.2569 29.2415C19.2568 29.6394 19.4147 30.021 19.696 30.3025C20.3925 30.9991 21.2193 31.5518 22.1294 31.9288C23.0395 32.3058 24.0149 32.4999 25 32.4999C25.9851 32.4999 26.9605 32.3058 27.8706 31.9288C28.7807 31.5518 29.6075 30.9991 30.304 30.3025Z" fill="#F0F4F8"/>
</svg>
