<svg width="50" height="50" viewBox="0 0 50 50" fill="none" xmlns="http://www.w3.org/2000/svg">
<rect width="50" height="50" rx="25" fill="#1D2027" fill-opacity="0.8"/>
<path d="M30 30.3125C30 32.5562 28.1813 34.375 25.9375 34.375H16.5625C14.3188 34.375 12.5 32.5562 12.5 30.3125V19.6875C12.5 17.4438 14.3188 15.625 16.5625 15.625H25.9375C28.1813 15.625 30 17.4438 30 19.6875V30.3125ZM37.0244 18.2469C36.7306 18.0806 36.37 18.085 36.08 18.2587L31.25 21.1569V28.8431L36.0806 31.7412C36.2288 31.8306 36.395 31.875 36.5625 31.875C36.7219 31.875 36.8813 31.8344 37.0244 31.7531C37.3181 31.5869 37.5 31.2756 37.5 30.9375V19.0625C37.5 18.7244 37.3181 18.4131 37.0244 18.2469Z" fill="#1971FF"/>
</svg>
