<svg width="32" height="30" viewBox="0 0 32 30" fill="none" xmlns="http://www.w3.org/2000/svg">
<path d="M19 3.75C18.4477 3.75 18 4.16973 18 4.6875C18 5.20527 18.4477 5.625 19 5.625H24.5871L19.9609 9.96209C19.5704 10.3282 19.5704 10.9218 19.9609 11.2879C20.3514 11.654 20.9846 11.654 21.3751 11.2879L26 6.95205V12.1875C26 12.7053 26.4477 13.125 27 13.125C27.5523 13.125 28 12.7053 28 12.1875V4.7355C28.0139 4.47983 27.9167 4.21986 27.7084 4.02459C27.5131 3.84146 27.2571 3.74993 27.001 3.75H19Z" fill="#7A7A7A"/>
<path d="M6.00002 17.8125C6.00002 17.2947 5.55231 16.875 5.00002 16.875C4.44774 16.875 4.00002 17.2947 4.00002 17.8125V25.3125C3.99986 25.5526 4.09749 25.7934 4.29292 25.9766C4.50121 26.1719 4.77853 26.263 5.05124 26.25H13C13.5523 26.25 14 25.8303 14 25.3125C14 24.7947 13.5523 24.375 13 24.375H7.41554L12.0405 20.0391C12.431 19.673 12.431 19.0794 12.0405 18.7133C11.6499 18.3472 11.0168 18.3472 10.6262 18.7133L6.00002 23.0504V17.8125Z" fill="#7A7A7A"/>
<path d="M27 16.875C27.5523 16.875 28 17.2947 28 17.8125V25.3125C28.0002 25.5527 27.9026 25.7934 27.7071 25.9766C27.4988 26.1719 27.2215 26.263 26.9488 26.25H19C18.4477 26.25 18 25.8303 18 25.3125C18 24.7947 18.4477 24.375 19 24.375H24.5845L19.9596 20.0391C19.5691 19.673 19.5691 19.0794 19.9596 18.7133C20.3501 18.3472 20.9833 18.3472 21.3738 18.7133L26 23.0504V17.8125C26 17.2947 26.4477 16.875 27 16.875Z" fill="#7A7A7A"/>
<path d="M13 5.625C13.5523 5.625 14 5.20527 14 4.6875C14 4.16973 13.5523 3.75 13 3.75H5.00002C4.99976 3.75 5.00028 3.75 5.00002 3.75C4.74393 3.74988 4.487 3.84141 4.29161 4.02459C4.08332 4.21986 3.98612 4.47984 4.00002 4.73551L4.00002 12.1875C4.00002 12.7053 4.44774 13.125 5.00002 13.125C5.55231 13.125 6.00002 12.7053 6.00002 12.1875L6.00002 6.95205L10.6249 11.2879C11.0155 11.654 11.6486 11.654 12.0392 11.2879C12.4297 10.9218 12.4297 10.3282 12.0392 9.96209L7.41293 5.625L13 5.625Z" fill="#7A7A7A"/>
</svg>
