<svg width="30" height="30" viewBox="0 0 30 30" fill="none" xmlns="http://www.w3.org/2000/svg">
<path d="M15 1.25C11.9 1.25 9.37502 3.775 9.37502 6.875V16.25C9.37502 16.3812 9.38098 16.512 9.38723 16.637L10.3125 15.7129V15.7117L11.0938 14.9316L18.75 7.27539V7.27417L19.6558 6.36841L20.4688 5.55664C19.875 3.08789 17.6438 1.25 15 1.25ZM26.5442 2.49146C26.3007 2.49855 26.0696 2.60012 25.8997 2.77466L2.77468 25.8997C2.68471 25.986 2.61288 26.0895 2.56339 26.204C2.51391 26.3185 2.48777 26.4417 2.4865 26.5664C2.48523 26.6912 2.50886 26.8149 2.55601 26.9304C2.60315 27.0459 2.67287 27.1508 2.76107 27.239C2.84926 27.3272 2.95417 27.3969 3.06965 27.444C3.18513 27.4912 3.30885 27.5148 3.43358 27.5135C3.5583 27.5123 3.68152 27.4861 3.79601 27.4366C3.91051 27.3871 4.01398 27.3153 4.10037 27.2253L8.41677 22.9089C9.90052 24.3793 11.8723 25.3521 14.0625 25.5713V28.4375C14.0608 28.5617 14.0837 28.6851 14.13 28.8004C14.1764 28.9156 14.2451 29.0206 14.3324 29.109C14.4196 29.1975 14.5235 29.2678 14.6382 29.3157C14.7528 29.3637 14.8758 29.3884 15 29.3884C15.1243 29.3884 15.2473 29.3637 15.3619 29.3157C15.4765 29.2678 15.5804 29.1975 15.6677 29.109C15.7549 29.0206 15.8237 28.9156 15.87 28.8004C15.9163 28.6851 15.9393 28.5617 15.9375 28.4375V25.5774C20.6678 25.1053 24.375 21.1023 24.375 16.25V14.0625C24.375 13.5438 23.9563 13.125 23.4375 13.125C22.9188 13.125 22.5 13.5438 22.5 14.0625V16.25C22.5 20.35 19.197 23.6837 15.1111 23.7439C15.1006 23.7425 15.09 23.7413 15.0794 23.7402C15.0481 23.7374 15.0167 23.7362 14.9854 23.7366C14.954 23.737 14.9226 23.7391 14.8914 23.7427C14.8898 23.7431 14.8881 23.7435 14.8865 23.7439C14.8861 23.7439 14.8857 23.7439 14.8853 23.7439C12.8813 23.7134 11.0673 22.8962 9.74124 21.5845L11.0706 20.2551C12.0861 21.2517 13.4687 21.875 15 21.875C18.1 21.875 20.625 19.35 20.625 16.25V10.7007L27.2254 4.10034C27.3606 3.96862 27.4529 3.79914 27.4903 3.61407C27.5276 3.429 27.5082 3.23698 27.4346 3.06312C27.361 2.88927 27.2366 2.74168 27.0778 2.63968C26.9189 2.53768 26.7329 2.48602 26.5442 2.49146V2.49146ZM6.56252 13.125C6.04377 13.125 5.62502 13.5438 5.62502 14.0625V16.25C5.62502 17.4813 5.86272 18.6564 6.29397 19.7314L7.77468 18.2495C7.59343 17.612 7.50002 16.9438 7.50002 16.25V14.0625C7.50002 13.5438 7.08127 13.125 6.56252 13.125Z" fill="#9CA3AF"/>
</svg>
