<svg width="30" height="30" viewBox="0 0 30 30" fill="none" xmlns="http://www.w3.org/2000/svg">
<g clip-path="url(#clip0_362_359)">
<path d="M15 1.25C11.9046 1.25 9.375 3.77955 9.375 6.875V16.25C9.375 19.3454 11.9046 21.875 15 21.875C18.0955 21.875 20.625 19.3454 20.625 16.25V6.875C20.625 3.77955 18.0955 1.25 15 1.25ZM6.54786 13.1116C6.29943 13.1155 6.0627 13.2178 5.88967 13.3961C5.71663 13.5744 5.62144 13.8141 5.62501 14.0625V16.25C5.62501 21.1003 9.33378 25.1051 14.0625 25.5774V28.4375C14.0607 28.5617 14.0837 28.6851 14.13 28.8004C14.1763 28.9156 14.2451 29.0206 14.3324 29.109C14.4196 29.1975 14.5235 29.2678 14.6381 29.3157C14.7528 29.3637 14.8758 29.3884 15 29.3884C15.1242 29.3884 15.2473 29.3637 15.3619 29.3157C15.4765 29.2678 15.5804 29.1975 15.6677 29.109C15.7549 29.0206 15.8237 28.9156 15.87 28.8004C15.9163 28.6851 15.9393 28.5617 15.9375 28.4375V25.5774C20.6662 25.1051 24.375 21.1003 24.375 16.25V14.0625C24.3768 13.9383 24.3538 13.8149 24.3075 13.6996C24.2612 13.5844 24.1924 13.4794 24.1052 13.391C24.0179 13.3025 23.914 13.2322 23.7994 13.1843C23.6847 13.1363 23.5617 13.1116 23.4375 13.1116C23.3133 13.1116 23.1903 13.1363 23.0756 13.1843C22.961 13.2322 22.8571 13.3025 22.7699 13.391C22.6826 13.4794 22.6138 13.5844 22.5675 13.6996C22.5212 13.8149 22.4982 13.9383 22.5 14.0625V16.25C22.5 20.3659 19.2123 23.6842 15.1111 23.7439C15.0694 23.7386 15.0274 23.7362 14.9854 23.7366C14.9511 23.7371 14.9168 23.7396 14.8828 23.7439C10.7845 23.681 7.5 20.3638 7.5 16.25V14.0625C7.5018 13.937 7.4784 13.8125 7.43117 13.6962C7.38394 13.5799 7.31385 13.4743 7.22506 13.3856C7.13627 13.297 7.03058 13.227 6.91425 13.1799C6.79793 13.1329 6.67333 13.1096 6.54786 13.1116V13.1116Z" fill="#1971FF"/>
</g>
<defs>
<clipPath id="clip0_362_359">
<rect width="30" height="30" fill="white"/>
</clipPath>
</defs>
</svg>
