<svg width="30" height="30" viewBox="0 0 30 30" fill="none" xmlns="http://www.w3.org/2000/svg">
<path d="M15.0008 18.3924C16.8744 18.3924 18.3933 16.8735 18.3933 14.9999C18.3933 13.1263 16.8744 11.6074 15.0008 11.6074C13.1272 11.6074 11.6083 13.1263 11.6083 14.9999C11.6083 16.8735 13.1272 18.3924 15.0008 18.3924Z" fill="#F0F4F8"/>
<path d="M26.3075 18.3924C28.1812 18.3924 29.7 16.8735 29.7 14.9999C29.7 13.1263 28.1812 11.6074 26.3075 11.6074C24.4339 11.6074 22.915 13.1263 22.915 14.9999C22.915 16.8735 24.4339 18.3924 26.3075 18.3924Z" fill="#F0F4F8"/>
<path d="M3.69249 18.3924C5.56611 18.3924 7.08493 16.8735 7.08493 14.9999C7.08493 13.1263 5.56611 11.6074 3.69249 11.6074C1.81886 11.6074 0.299988 13.1263 0.299988 14.9999C0.299988 16.8735 1.81886 18.3924 3.69249 18.3924Z" fill="#F0F4F8"/>
</svg>
