<svg width="30" height="30" viewBox="0 0 30 30" fill="none" xmlns="http://www.w3.org/2000/svg">
<path d="M22.875 9.75H16.05V19.2657C16.05 19.5441 15.9394 19.8112 15.7425 20.0081C15.5455 20.2051 15.2784 20.3156 15 20.3156C14.7215 20.3156 14.4544 20.2051 14.2575 20.0081C14.0606 19.8112 13.95 19.5441 13.95 19.2657V9.75H7.12487C6.15056 9.751 5.21637 10.1386 4.52744 10.8276C3.83844 11.5164 3.45094 12.4506 3.44987 13.425V26.0251C3.45094 26.9994 3.83844 27.9336 4.52744 28.6226C5.21637 29.3116 6.15056 29.6991 7.12487 29.7001H22.875C23.8494 29.6991 24.7836 29.3116 25.4725 28.6226C26.1615 27.9336 26.5491 26.9994 26.5501 26.0251V13.425C26.5491 12.4506 26.1615 11.5164 25.4725 10.8276C24.7836 10.1386 23.8494 9.751 22.875 9.75Z" fill="#F0F4F8"/>
<path d="M16.0496 3.88443L19.5073 7.34156C19.7059 7.53018 19.9702 7.63381 20.244 7.63024C20.5178 7.62681 20.7794 7.51649 20.973 7.3228C21.1666 7.12924 21.2769 6.86762 21.2804 6.59387C21.284 6.31993 21.1804 6.05562 20.9917 5.85712L15.7417 0.607117C15.5448 0.410367 15.2779 0.299805 14.9995 0.299805C14.7212 0.299805 14.4542 0.410367 14.2572 0.607117L9.00725 5.85712C8.81862 6.05562 8.71506 6.31993 8.71856 6.59387C8.72212 6.86762 8.83237 7.12924 9.026 7.3228C9.21969 7.51649 9.48119 7.62681 9.75506 7.63024C10.0288 7.63381 10.2931 7.53018 10.4917 7.34156L13.9495 3.88443V9.74937H16.0495L16.0496 3.88443Z" fill="#F0F4F8"/>
</svg>
