<svg width="30" height="30" viewBox="0 0 30 30" fill="none" xmlns="http://www.w3.org/2000/svg">
<path d="M26.5442 2.4916C26.3007 2.4987 26.0696 2.60026 25.8997 2.7748L2.77468 25.8998C2.68471 25.9862 2.61288 26.0897 2.56339 26.2042C2.51391 26.3187 2.48777 26.4419 2.4865 26.5666C2.48523 26.6913 2.50886 26.815 2.55601 26.9305C2.60315 27.046 2.67287 27.1509 2.76107 27.2391C2.84926 27.3273 2.95417 27.397 3.06965 27.4442C3.18513 27.4913 3.30885 27.5149 3.43358 27.5137C3.5583 27.5124 3.68152 27.4863 3.79601 27.4368C3.91051 27.3873 4.01398 27.3155 4.10037 27.2255L6.95071 24.3751H15.9375C18.1813 24.3751 20 22.5564 20 20.3126V11.3258L27.2254 4.10049C27.3606 3.96876 27.4529 3.79928 27.4903 3.61421C27.5276 3.42915 27.5082 3.23712 27.4346 3.06327C27.361 2.88941 27.2366 2.74183 27.0778 2.63983C26.9189 2.53783 26.7329 2.48616 26.5442 2.4916V2.4916ZM6.56252 5.62514C4.31877 5.62514 2.50002 7.44389 2.50002 9.68764V20.3126C2.50002 21.2251 2.80429 22.0637 3.31179 22.7418L19.0149 7.03994C18.2699 6.17556 17.1688 5.62514 15.9375 5.62514H6.56252ZM26.5503 8.12514C26.3872 8.12718 26.2253 8.17255 26.0803 8.25942L21.25 11.1574V18.8429L26.0803 21.7409C26.2285 21.8302 26.395 21.8751 26.5625 21.8751C26.7219 21.8751 26.8808 21.8343 27.0239 21.7531C27.3177 21.5868 27.5 21.2758 27.5 20.9376V9.06264C27.5 8.72452 27.3177 8.41346 27.0239 8.24721C26.8771 8.16409 26.7134 8.12311 26.5503 8.12514Z" fill="#9CA3AF"/>
</svg>
