<svg width="274" height="50" viewBox="0 0 274 50" fill="none" xmlns="http://www.w3.org/2000/svg">
<path d="M11.5208 4.43737L0 16.1457H11.5208V4.43737ZM12.35 4.43737V16.1457H28.2V23.7499L39.5958 14.479C39.5667 11.9374 39.6604 9.79154 39.5438 7.27071C39.2354 4.99987 36.8625 4.20821 34.8854 4.43737H12.35ZM48.125 8.99987C46.4542 9.61446 45.2958 11.0728 43.8604 12.104C38.6396 16.3749 33.4813 20.6874 28.3021 24.9999C34.6042 30.3957 40.8854 35.7915 47.1875 41.1665C49.725 42.5645 50.1625 39.4707 49.9542 37.7499V10.6665C49.9537 10.4317 49.9053 10.1994 49.812 9.9839C49.7186 9.7684 49.5822 9.57425 49.4111 9.41333C49.24 9.25241 49.0379 9.12811 48.8171 9.04806C48.5963 8.96801 48.3615 8.93389 48.1271 8.94779L48.125 8.99987ZM0.0791667 16.979V33.0207H11.6V16.979H0.0791667ZM28.3646 33.854H12.5167V45.5624C20.5667 45.5499 28.6354 45.5853 36.6417 45.5436C38.7667 45.3978 40.0125 43.2103 39.7 41.2311V36.002L28.3042 26.252V33.8561L28.3646 33.854ZM0.0791667 33.854C0.120833 36.854 -0.00625 39.854 0.147917 42.8332C0.485417 44.8082 2.56042 45.8124 4.4125 45.5624H11.6292V33.854H0.0791667Z" fill="#A7A8AF"/>
<path d="M70.032 23.288C68.736 23.288 67.528 23.08 66.408 22.664C65.304 22.232 64.344 21.624 63.528 20.84C62.712 20.056 62.072 19.136 61.608 18.08C61.16 17.024 60.936 15.864 60.936 14.6C60.936 13.336 61.16 12.176 61.608 11.12C62.072 10.064 62.712 9.144 63.528 8.36C64.36 7.576 65.328 6.976 66.432 6.56C67.536 6.128 68.744 5.912 70.056 5.912C71.512 5.912 72.824 6.168 73.992 6.68C75.176 7.176 76.168 7.912 76.968 8.888L74.472 11.192C73.896 10.536 73.256 10.048 72.552 9.728C71.848 9.392 71.08 9.224 70.248 9.224C69.464 9.224 68.744 9.352 68.088 9.608C67.432 9.864 66.864 10.232 66.384 10.712C65.904 11.192 65.528 11.76 65.256 12.416C65 13.072 64.872 13.8 64.872 14.6C64.872 15.4 65 16.128 65.256 16.784C65.528 17.44 65.904 18.008 66.384 18.488C66.864 18.968 67.432 19.336 68.088 19.592C68.744 19.848 69.464 19.976 70.248 19.976C71.08 19.976 71.848 19.816 72.552 19.496C73.256 19.16 73.896 18.656 74.472 17.984L76.968 20.288C76.168 21.264 75.176 22.008 73.992 22.52C72.824 23.032 71.504 23.288 70.032 23.288ZM79.5936 23V6.2H82.8096L89.9616 18.056H88.2576L95.2896 6.2H98.4816L98.5296 23H94.8816L94.8576 11.792H95.5296L89.9136 21.224H88.1616L82.4256 11.792H83.2416V23H79.5936ZM110.675 23.288C109.347 23.288 108.115 23.072 106.979 22.64C105.859 22.208 104.883 21.6 104.051 20.816C103.235 20.032 102.595 19.112 102.131 18.056C101.683 17 101.459 15.848 101.459 14.6C101.459 13.352 101.683 12.2 102.131 11.144C102.595 10.088 103.243 9.168 104.075 8.384C104.907 7.6 105.883 6.992 107.003 6.56C108.123 6.128 109.339 5.912 110.651 5.912C111.979 5.912 113.195 6.128 114.299 6.56C115.419 6.992 116.387 7.6 117.203 8.384C118.035 9.168 118.683 10.088 119.147 11.144C119.611 12.184 119.843 13.336 119.843 14.6C119.843 15.848 119.611 17.008 119.147 18.08C118.683 19.136 118.035 20.056 117.203 20.84C116.387 21.608 115.419 22.208 114.299 22.64C113.195 23.072 111.987 23.288 110.675 23.288ZM110.651 19.976C111.403 19.976 112.091 19.848 112.715 19.592C113.355 19.336 113.915 18.968 114.395 18.488C114.875 18.008 115.243 17.44 115.499 16.784C115.771 16.128 115.907 15.4 115.907 14.6C115.907 13.8 115.771 13.072 115.499 12.416C115.243 11.76 114.875 11.192 114.395 10.712C113.931 10.232 113.379 9.864 112.739 9.608C112.099 9.352 111.403 9.224 110.651 9.224C109.899 9.224 109.203 9.352 108.563 9.608C107.939 9.864 107.387 10.232 106.907 10.712C106.427 11.192 106.051 11.76 105.779 12.416C105.523 13.072 105.395 13.8 105.395 14.6C105.395 15.384 105.523 16.112 105.779 16.784C106.051 17.44 106.419 18.008 106.883 18.488C107.363 18.968 107.923 19.336 108.563 19.592C109.203 19.848 109.899 19.976 110.651 19.976ZM126.011 23V9.368H120.635V6.2H135.275V9.368H129.899V23H126.011ZM142.77 23.288C141.426 23.288 140.138 23.112 138.906 22.76C137.674 22.392 136.682 21.92 135.93 21.344L137.25 18.416C137.97 18.928 138.818 19.352 139.794 19.688C140.786 20.008 141.786 20.168 142.794 20.168C143.562 20.168 144.178 20.096 144.642 19.952C145.122 19.792 145.474 19.576 145.698 19.304C145.922 19.032 146.034 18.72 146.034 18.368C146.034 17.92 145.858 17.568 145.506 17.312C145.154 17.04 144.69 16.824 144.114 16.664C143.538 16.488 142.898 16.328 142.194 16.184C141.506 16.024 140.81 15.832 140.106 15.608C139.418 15.384 138.786 15.096 138.21 14.744C137.634 14.392 137.162 13.928 136.794 13.352C136.442 12.776 136.266 12.04 136.266 11.144C136.266 10.184 136.522 9.312 137.034 8.528C137.562 7.728 138.346 7.096 139.386 6.632C140.442 6.152 141.762 5.912 143.346 5.912C144.402 5.912 145.442 6.04 146.466 6.296C147.49 6.536 148.394 6.904 149.178 7.4L147.978 10.352C147.194 9.904 146.41 9.576 145.626 9.368C144.842 9.144 144.074 9.032 143.322 9.032C142.57 9.032 141.954 9.12 141.474 9.296C140.994 9.472 140.65 9.704 140.442 9.992C140.234 10.264 140.13 10.584 140.13 10.952C140.13 11.384 140.306 11.736 140.658 12.008C141.01 12.264 141.474 12.472 142.05 12.632C142.626 12.792 143.258 12.952 143.946 13.112C144.65 13.272 145.346 13.456 146.034 13.664C146.738 13.872 147.378 14.152 147.954 14.504C148.53 14.856 148.994 15.32 149.346 15.896C149.714 16.472 149.898 17.2 149.898 18.08C149.898 19.024 149.634 19.888 149.106 20.672C148.578 21.456 147.786 22.088 146.73 22.568C145.69 23.048 144.37 23.288 142.77 23.288ZM159.351 23V6.2H162.567L169.719 18.056H168.015L175.047 6.2H178.239L178.287 23H174.639L174.615 11.792H175.287L169.671 21.224H167.919L162.183 11.792H162.999V23H159.351ZM185.849 12.968H193.937V15.992H185.849V12.968ZM186.137 19.88H195.281V23H182.273V6.2H194.969V9.32H186.137V19.88ZM201.951 12.968H210.039V15.992H201.951V12.968ZM202.239 19.88H211.383V23H198.375V6.2H211.071V9.32H202.239V19.88ZM217.956 23V9.368H212.58V6.2H227.22V9.368H221.844V23H217.956ZM229.312 23V6.2H233.2V23H229.312ZM237.187 23V6.2H240.403L250.315 18.296H248.755V6.2H252.595V23H249.403L239.467 10.904H241.027V23H237.187ZM264.682 23.288C263.354 23.288 262.13 23.08 261.01 22.664C259.906 22.232 258.938 21.624 258.106 20.84C257.29 20.056 256.65 19.136 256.186 18.08C255.738 17.024 255.514 15.864 255.514 14.6C255.514 13.336 255.738 12.176 256.186 11.12C256.65 10.064 257.298 9.144 258.13 8.36C258.962 7.576 259.938 6.976 261.058 6.56C262.178 6.128 263.41 5.912 264.754 5.912C266.242 5.912 267.578 6.16 268.762 6.656C269.962 7.152 270.97 7.872 271.786 8.816L269.29 11.12C268.682 10.48 268.018 10.008 267.298 9.704C266.578 9.384 265.794 9.224 264.946 9.224C264.13 9.224 263.386 9.352 262.714 9.608C262.042 9.864 261.458 10.232 260.962 10.712C260.482 11.192 260.106 11.76 259.834 12.416C259.578 13.072 259.45 13.8 259.45 14.6C259.45 15.384 259.578 16.104 259.834 16.76C260.106 17.416 260.482 17.992 260.962 18.488C261.458 18.968 262.034 19.336 262.69 19.592C263.362 19.848 264.098 19.976 264.898 19.976C265.666 19.976 266.41 19.856 267.13 19.616C267.866 19.36 268.578 18.936 269.266 18.344L271.474 21.152C270.562 21.84 269.498 22.368 268.282 22.736C267.082 23.104 265.882 23.288 264.682 23.288ZM267.922 20.648V14.336H271.474V21.152L267.922 20.648Z" fill="#A7A8AF"/>
<path d="M62.73 39.834H67.784V41.038H62.73V39.834ZM62.87 45H61.47V35.2H68.386V36.418H62.87V45ZM73.1063 45.084C72.3596 45.084 71.697 44.9207 71.1183 44.594C70.5396 44.2673 70.0823 43.8193 69.7463 43.25C69.4103 42.6713 69.2423 42.018 69.2423 41.29C69.2423 40.5527 69.4103 39.8993 69.7463 39.33C70.0823 38.7607 70.5396 38.3173 71.1183 38C71.697 37.6733 72.3596 37.51 73.1063 37.51C73.8436 37.51 74.5016 37.6733 75.0803 38C75.6683 38.3173 76.1256 38.7607 76.4523 39.33C76.7883 39.89 76.9563 40.5433 76.9563 41.29C76.9563 42.0273 76.7883 42.6807 76.4523 43.25C76.1256 43.8193 75.6683 44.2673 75.0803 44.594C74.5016 44.9207 73.8436 45.084 73.1063 45.084ZM73.1063 43.908C73.5823 43.908 74.007 43.8007 74.3803 43.586C74.763 43.3713 75.0616 43.068 75.2763 42.676C75.491 42.2747 75.5983 41.8127 75.5983 41.29C75.5983 40.758 75.491 40.3007 75.2763 39.918C75.0616 39.526 74.763 39.2227 74.3803 39.008C74.007 38.7933 73.5823 38.686 73.1063 38.686C72.6303 38.686 72.2056 38.7933 71.8323 39.008C71.459 39.2227 71.1603 39.526 70.9363 39.918C70.7123 40.3007 70.6003 40.758 70.6003 41.29C70.6003 41.8127 70.7123 42.2747 70.9363 42.676C71.1603 43.068 71.459 43.3713 71.8323 43.586C72.2056 43.8007 72.6303 43.908 73.1063 43.908ZM78.815 45V37.58H80.103V39.596L79.977 39.092C80.1823 38.5787 80.5277 38.1867 81.013 37.916C81.4983 37.6453 82.0957 37.51 82.805 37.51V38.812C82.749 38.8027 82.693 38.798 82.637 38.798C82.5903 38.798 82.5437 38.798 82.497 38.798C81.7783 38.798 81.209 39.0127 80.789 39.442C80.369 39.8713 80.159 40.492 80.159 41.304V45H78.815ZM92.937 45.112C92.1903 45.112 91.495 44.986 90.851 44.734C90.2163 44.482 89.6656 44.132 89.199 43.684C88.7323 43.2267 88.3683 42.6947 88.107 42.088C87.8456 41.4813 87.715 40.8187 87.715 40.1C87.715 39.3813 87.8456 38.7187 88.107 38.112C88.3683 37.5053 88.7323 36.978 89.199 36.53C89.6656 36.0727 90.2163 35.718 90.851 35.466C91.4856 35.214 92.181 35.088 92.937 35.088C93.6836 35.088 94.3696 35.214 94.995 35.466C95.6296 35.7087 96.1803 36.0587 96.647 36.516C97.123 36.964 97.487 37.4913 97.739 38.098C98.0003 38.7047 98.131 39.372 98.131 40.1C98.131 40.828 98.0003 41.4953 97.739 42.102C97.487 42.7087 97.123 43.2407 96.647 43.698C96.1803 44.146 95.6296 44.496 94.995 44.748C94.3696 44.9907 93.6836 45.112 92.937 45.112ZM92.937 43.866C93.4783 43.866 93.9776 43.7727 94.435 43.586C94.9016 43.3993 95.303 43.138 95.639 42.802C95.9843 42.4567 96.2503 42.0553 96.437 41.598C96.633 41.1407 96.731 40.6413 96.731 40.1C96.731 39.5587 96.633 39.0593 96.437 38.602C96.2503 38.1447 95.9843 37.748 95.639 37.412C95.303 37.0667 94.9016 36.8007 94.435 36.614C93.9776 36.4273 93.4783 36.334 92.937 36.334C92.3863 36.334 91.8776 36.4273 91.411 36.614C90.9536 36.8007 90.5523 37.0667 90.207 37.412C89.8616 37.748 89.591 38.1447 89.395 38.602C89.2083 39.0593 89.115 39.5587 89.115 40.1C89.115 40.6413 89.2083 41.1407 89.395 41.598C89.591 42.0553 89.8616 42.4567 90.207 42.802C90.5523 43.138 90.9536 43.3993 91.411 43.586C91.8776 43.7727 92.3863 43.866 92.937 43.866ZM100.271 45V36.922C100.271 36.194 100.481 35.6153 100.901 35.186C101.33 34.7473 101.937 34.528 102.721 34.528C103.01 34.528 103.285 34.5653 103.547 34.64C103.817 34.7053 104.046 34.8127 104.233 34.962L103.827 35.984C103.687 35.872 103.528 35.788 103.351 35.732C103.173 35.6667 102.987 35.634 102.791 35.634C102.399 35.634 102.1 35.746 101.895 35.97C101.689 36.1847 101.587 36.5067 101.587 36.936V37.93L101.615 38.546V45H100.271ZM99.0108 38.686V37.58H103.743V38.686H99.0108ZM105.206 45V36.922C105.206 36.194 105.416 35.6153 105.836 35.186C106.266 34.7473 106.872 34.528 107.656 34.528C107.946 34.528 108.221 34.5653 108.482 34.64C108.753 34.7053 108.982 34.8127 109.168 34.962L108.762 35.984C108.622 35.872 108.464 35.788 108.286 35.732C108.109 35.6667 107.922 35.634 107.726 35.634C107.334 35.634 107.036 35.746 106.83 35.97C106.625 36.1847 106.522 36.5067 106.522 36.936V37.93L106.55 38.546V45H105.206ZM103.946 38.686V37.58H108.678V38.686H103.946ZM109.952 45V37.58H111.296V45H109.952ZM110.624 36.152C110.363 36.152 110.144 36.068 109.966 35.9C109.798 35.732 109.714 35.5267 109.714 35.284C109.714 35.032 109.798 34.822 109.966 34.654C110.144 34.486 110.363 34.402 110.624 34.402C110.886 34.402 111.1 34.486 111.268 34.654C111.446 34.8127 111.534 35.0133 111.534 35.256C111.534 35.508 111.45 35.7227 111.282 35.9C111.114 36.068 110.895 36.152 110.624 36.152ZM117.09 45.084C116.334 45.084 115.657 44.9207 115.06 44.594C114.472 44.2673 114.01 43.8193 113.674 43.25C113.338 42.6807 113.17 42.0273 113.17 41.29C113.17 40.5527 113.338 39.8993 113.674 39.33C114.01 38.7607 114.472 38.3173 115.06 38C115.657 37.6733 116.334 37.51 117.09 37.51C117.762 37.51 118.359 37.6453 118.882 37.916C119.414 38.1773 119.825 38.5693 120.114 39.092L119.092 39.75C118.849 39.386 118.551 39.12 118.196 38.952C117.851 38.7747 117.477 38.686 117.076 38.686C116.591 38.686 116.157 38.7933 115.774 39.008C115.391 39.2227 115.088 39.526 114.864 39.918C114.64 40.3007 114.528 40.758 114.528 41.29C114.528 41.822 114.64 42.284 114.864 42.676C115.088 43.068 115.391 43.3713 115.774 43.586C116.157 43.8007 116.591 43.908 117.076 43.908C117.477 43.908 117.851 43.824 118.196 43.656C118.551 43.4787 118.849 43.208 119.092 42.844L120.114 43.488C119.825 44.0013 119.414 44.398 118.882 44.678C118.359 44.9487 117.762 45.084 117.09 45.084ZM125.049 45.084C124.255 45.084 123.555 44.9207 122.949 44.594C122.351 44.2673 121.885 43.8193 121.549 43.25C121.222 42.6807 121.059 42.0273 121.059 41.29C121.059 40.5527 121.217 39.8993 121.535 39.33C121.861 38.7607 122.305 38.3173 122.865 38C123.434 37.6733 124.073 37.51 124.783 37.51C125.501 37.51 126.136 37.6687 126.687 37.986C127.237 38.3033 127.667 38.7513 127.975 39.33C128.292 39.8993 128.451 40.5667 128.451 41.332C128.451 41.388 128.446 41.4533 128.437 41.528C128.437 41.6027 128.432 41.6727 128.423 41.738H122.109V40.772H127.723L127.177 41.108C127.186 40.632 127.088 40.2073 126.883 39.834C126.677 39.4607 126.393 39.1713 126.029 38.966C125.674 38.7513 125.259 38.644 124.783 38.644C124.316 38.644 123.901 38.7513 123.537 38.966C123.173 39.1713 122.888 39.4653 122.683 39.848C122.477 40.2213 122.375 40.6507 122.375 41.136V41.36C122.375 41.8547 122.487 42.298 122.711 42.69C122.944 43.0727 123.266 43.3713 123.677 43.586C124.087 43.8007 124.559 43.908 125.091 43.908C125.529 43.908 125.926 43.8333 126.281 43.684C126.645 43.5347 126.962 43.3107 127.233 43.012L127.975 43.88C127.639 44.272 127.219 44.5707 126.715 44.776C126.22 44.9813 125.665 45.084 125.049 45.084ZM136.863 45.112C136.2 45.112 135.612 45.0047 135.099 44.79C134.585 44.5753 134.179 44.2767 133.881 43.894C133.582 43.5113 133.433 43.068 133.433 42.564C133.433 42.1253 133.531 41.724 133.727 41.36C133.923 40.996 134.235 40.646 134.665 40.31C135.094 39.9647 135.659 39.61 136.359 39.246C136.928 38.9473 137.371 38.686 137.689 38.462C138.015 38.238 138.244 38.028 138.375 37.832C138.515 37.6267 138.585 37.4073 138.585 37.174C138.585 36.8567 138.473 36.6 138.249 36.404C138.025 36.1987 137.703 36.096 137.283 36.096C136.844 36.096 136.499 36.208 136.247 36.432C136.004 36.6467 135.883 36.9313 135.883 37.286C135.883 37.4633 135.911 37.636 135.967 37.804C136.032 37.9627 136.144 38.1447 136.303 38.35C136.471 38.546 136.709 38.798 137.017 39.106L142.197 44.258L141.441 45.154L135.939 39.68C135.612 39.3533 135.355 39.064 135.169 38.812C134.982 38.5507 134.847 38.2987 134.763 38.056C134.679 37.8133 134.637 37.566 134.637 37.314C134.637 36.8753 134.744 36.4927 134.959 36.166C135.183 35.83 135.491 35.5733 135.883 35.396C136.284 35.2093 136.751 35.116 137.283 35.116C137.777 35.116 138.207 35.2 138.571 35.368C138.935 35.5267 139.215 35.76 139.411 36.068C139.616 36.3667 139.719 36.7307 139.719 37.16C139.719 37.5333 139.625 37.8787 139.439 38.196C139.261 38.5133 138.972 38.8213 138.571 39.12C138.169 39.4187 137.628 39.7407 136.947 40.086C136.387 40.3753 135.948 40.646 135.631 40.898C135.313 41.1407 135.085 41.3833 134.945 41.626C134.814 41.8687 134.749 42.1347 134.749 42.424C134.749 42.732 134.837 43.0073 135.015 43.25C135.201 43.4833 135.458 43.6653 135.785 43.796C136.121 43.9267 136.508 43.992 136.947 43.992C137.572 43.992 138.137 43.8567 138.641 43.586C139.145 43.3153 139.565 42.9093 139.901 42.368C140.246 41.8267 140.498 41.1547 140.657 40.352L141.735 40.702C141.548 41.6447 141.226 42.4427 140.769 43.096C140.321 43.7493 139.765 44.2487 139.103 44.594C138.44 44.9393 137.693 45.112 136.863 45.112ZM152.012 45.112C151.265 45.112 150.575 44.9907 149.94 44.748C149.315 44.496 148.769 44.146 148.302 43.698C147.845 43.2407 147.485 42.7087 147.224 42.102C146.963 41.4953 146.832 40.828 146.832 40.1C146.832 39.372 146.963 38.7047 147.224 38.098C147.485 37.4913 147.849 36.964 148.316 36.516C148.783 36.0587 149.329 35.7087 149.954 35.466C150.589 35.214 151.279 35.088 152.026 35.088C152.782 35.088 153.477 35.2187 154.112 35.48C154.756 35.732 155.302 36.11 155.75 36.614L154.84 37.496C154.467 37.104 154.047 36.8147 153.58 36.628C153.113 36.432 152.614 36.334 152.082 36.334C151.531 36.334 151.018 36.4273 150.542 36.614C150.075 36.8007 149.669 37.062 149.324 37.398C148.979 37.734 148.708 38.1353 148.512 38.602C148.325 39.0593 148.232 39.5587 148.232 40.1C148.232 40.6413 148.325 41.1453 148.512 41.612C148.708 42.0693 148.979 42.466 149.324 42.802C149.669 43.138 150.075 43.3993 150.542 43.586C151.018 43.7727 151.531 43.866 152.082 43.866C152.614 43.866 153.113 43.7727 153.58 43.586C154.047 43.39 154.467 43.0913 154.84 42.69L155.75 43.572C155.302 44.076 154.756 44.4587 154.112 44.72C153.477 44.9813 152.777 45.112 152.012 45.112ZM157.551 45V34.612H158.895V45H157.551ZM161.462 45V37.58H162.806V45H161.462ZM162.134 36.152C161.872 36.152 161.653 36.068 161.476 35.9C161.308 35.732 161.224 35.5267 161.224 35.284C161.224 35.032 161.308 34.822 161.476 34.654C161.653 34.486 161.872 34.402 162.134 34.402C162.395 34.402 162.61 34.486 162.778 34.654C162.955 34.8127 163.044 35.0133 163.044 35.256C163.044 35.508 162.96 35.7227 162.792 35.9C162.624 36.068 162.404 36.152 162.134 36.152ZM168.676 45.084C167.882 45.084 167.182 44.9207 166.576 44.594C165.978 44.2673 165.512 43.8193 165.176 43.25C164.849 42.6807 164.686 42.0273 164.686 41.29C164.686 40.5527 164.844 39.8993 165.162 39.33C165.488 38.7607 165.932 38.3173 166.492 38C167.061 37.6733 167.7 37.51 168.41 37.51C169.128 37.51 169.763 37.6687 170.314 37.986C170.864 38.3033 171.294 38.7513 171.602 39.33C171.919 39.8993 172.078 40.5667 172.078 41.332C172.078 41.388 172.073 41.4533 172.064 41.528C172.064 41.6027 172.059 41.6727 172.05 41.738H165.736V40.772H171.35L170.804 41.108C170.813 40.632 170.715 40.2073 170.51 39.834C170.304 39.4607 170.02 39.1713 169.656 38.966C169.301 38.7513 168.886 38.644 168.41 38.644C167.943 38.644 167.528 38.7513 167.164 38.966C166.8 39.1713 166.515 39.4653 166.31 39.848C166.104 40.2213 166.002 40.6507 166.002 41.136V41.36C166.002 41.8547 166.114 42.298 166.338 42.69C166.571 43.0727 166.893 43.3713 167.304 43.586C167.714 43.8007 168.186 43.908 168.718 43.908C169.156 43.908 169.553 43.8333 169.908 43.684C170.272 43.5347 170.589 43.3107 170.86 43.012L171.602 43.88C171.266 44.272 170.846 44.5707 170.342 44.776C169.847 44.9813 169.292 45.084 168.676 45.084ZM177.906 37.51C178.513 37.51 179.045 37.6267 179.502 37.86C179.969 38.0933 180.333 38.448 180.594 38.924C180.855 39.4 180.986 40.002 180.986 40.73V45H179.642V40.884C179.642 40.1653 179.465 39.624 179.11 39.26C178.765 38.896 178.275 38.714 177.64 38.714C177.164 38.714 176.749 38.8073 176.394 38.994C176.039 39.1807 175.764 39.456 175.568 39.82C175.381 40.184 175.288 40.6367 175.288 41.178V45H173.944V37.58H175.232V39.582L175.022 39.05C175.265 38.5647 175.638 38.1867 176.142 37.916C176.646 37.6453 177.234 37.51 177.906 37.51ZM186.021 45.084C185.275 45.084 184.696 44.8833 184.285 44.482C183.875 44.0807 183.669 43.5067 183.669 42.76V35.956H185.013V42.704C185.013 43.1053 185.111 43.4133 185.307 43.628C185.513 43.8427 185.802 43.95 186.175 43.95C186.595 43.95 186.945 43.8333 187.225 43.6L187.645 44.566C187.44 44.7433 187.193 44.874 186.903 44.958C186.623 45.042 186.329 45.084 186.021 45.084ZM182.409 38.686V37.58H187.141V38.686H182.409ZM191.398 45.084C190.782 45.084 190.194 45 189.634 44.832C189.083 44.664 188.649 44.4587 188.332 44.216L188.892 43.152C189.209 43.3667 189.601 43.5487 190.068 43.698C190.535 43.8473 191.011 43.922 191.496 43.922C192.121 43.922 192.569 43.8333 192.84 43.656C193.12 43.4787 193.26 43.2313 193.26 42.914C193.26 42.6807 193.176 42.4987 193.008 42.368C192.84 42.2373 192.616 42.1393 192.336 42.074C192.065 42.0087 191.762 41.9527 191.426 41.906C191.09 41.85 190.754 41.7847 190.418 41.71C190.082 41.626 189.774 41.514 189.494 41.374C189.214 41.2247 188.99 41.024 188.822 40.772C188.654 40.5107 188.57 40.1653 188.57 39.736C188.57 39.288 188.696 38.896 188.948 38.56C189.2 38.224 189.555 37.9673 190.012 37.79C190.479 37.6033 191.029 37.51 191.664 37.51C192.149 37.51 192.639 37.5707 193.134 37.692C193.638 37.804 194.049 37.9673 194.366 38.182L193.792 39.246C193.456 39.022 193.106 38.868 192.742 38.784C192.378 38.7 192.014 38.658 191.65 38.658C191.062 38.658 190.623 38.756 190.334 38.952C190.045 39.1387 189.9 39.3813 189.9 39.68C189.9 39.932 189.984 40.128 190.152 40.268C190.329 40.3987 190.553 40.5013 190.824 40.576C191.104 40.6507 191.412 40.716 191.748 40.772C192.084 40.8187 192.42 40.884 192.756 40.968C193.092 41.0427 193.395 41.15 193.666 41.29C193.946 41.43 194.17 41.626 194.338 41.878C194.515 42.13 194.604 42.466 194.604 42.886C194.604 43.334 194.473 43.7213 194.212 44.048C193.951 44.3747 193.582 44.6313 193.106 44.818C192.63 44.9953 192.061 45.084 191.398 45.084Z" fill="#A7A8AF"/>
</svg>
