<svg width="30" height="30" viewBox="0 0 30 30" fill="none" xmlns="http://www.w3.org/2000/svg">
<path d="M20 20.3125C20 22.5562 18.1813 24.375 15.9375 24.375H6.5625C4.31875 24.375 2.5 22.5562 2.5 20.3125V9.6875C2.5 7.44375 4.31875 5.625 6.5625 5.625H15.9375C18.1813 5.625 20 7.44375 20 9.6875V20.3125ZM27.0244 8.24687C26.7306 8.08062 26.37 8.085 26.08 8.25875L21.25 11.1569V18.8431L26.0806 21.7412C26.2288 21.8306 26.395 21.875 26.5625 21.875C26.7219 21.875 26.8813 21.8344 27.0244 21.7531C27.3181 21.5869 27.5 21.2756 27.5 20.9375V9.0625C27.5 8.72437 27.3181 8.41312 27.0244 8.24687Z" fill="#1971FF"/>
</svg>
